<?xml version="1.0" encoding="utf-8"?>
<!-- Generator: Adobe Illustrator 16.0.4, SVG Export Plug-In . SVG Version: 6.00 Build 0)  -->
<!DOCTYPE svg PUBLIC "-//W3C//DTD SVG 1.1//EN" "http://www.w3.org/Graphics/SVG/1.1/DTD/svg11.dtd">
<svg version="1.1" id="svg" xmlns="http://www.w3.org/2000/svg" xmlns:xlink="http://www.w3.org/1999/xlink" x="0px" y="0px"
	 width="316.762px" height="352.879px" viewBox="17.943 17.266 316.762 352.879"
	 enable-background="new 17.943 17.266 316.762 352.879" xml:space="preserve">
<g id="svgg">
	<path id="path1" fill="#FF6A00" d="M49.572,17.846c-7.035,1.548-8.895,2.077-9.528,2.71c-0.386,0.385-1.129,0.701-1.652,0.701
		s-1.605,0.514-2.404,1.142c-0.799,0.629-1.749,1.143-2.112,1.143c-0.896,0-9.352,8.516-10.354,10.43
		c-5.291,10.099-5.771,11.9-5.528,20.788c0.116,4.26,0.521,8.195,0.963,9.354c1.464,3.836,4.7,10.206,5.856,11.527
		c0.64,0.73,1.716,1.973,2.391,2.758c9.704,11.301,27.094,14.751,41.359,8.206c3.38-1.551,5.028-1.215,8.438,1.722
		c1.915,1.649,8.562,6.642,14.426,10.833c2.122,1.52,6.688,4.799,10.146,7.289c3.457,2.491,7.571,5.435,9.142,6.541
		c1.572,1.108,4.786,3.421,7.144,5.143c2.356,1.721,5.572,4.021,7.143,5.111c1.572,1.091,4.786,3.393,7.144,5.115
		c2.356,1.722,5.313,3.841,6.57,4.709c1.259,0.868,3.865,2.808,5.797,4.312c1.93,1.504,3.673,2.733,3.874,2.733
		c0.199,0,1.605,0.964,3.125,2.144c1.518,1.178,3.336,2.527,4.039,3c1.515,1.015,6.684,4.765,8.309,6.026
		c1.3,1.01,6.401,4.688,8.287,5.974c1.687,1.149,9.22,6.743,9.618,7.142c0.174,0.174-0.478,1.041-1.447,1.927
		c-2.09,1.909-6.39,6.786-7.602,8.621c-0.471,0.714-1.267,1.848-1.768,2.52c-2.428,3.247-4.934,7.227-6.173,9.801
		c-0.754,1.565-1.591,3.231-1.861,3.704c-0.27,0.471-0.638,1.243-0.816,1.714c-0.181,0.472-0.787,2.014-1.349,3.429
		c-1.79,4.512-2.425,6.508-2.904,9.144c-0.259,1.414-0.874,4.104-1.37,5.977c-2.182,8.246-0.976,32.679,2.032,41.165
		c0.334,0.943,0.803,2.615,1.04,3.715c0.918,4.244,9.345,20.841,11.284,22.227c1.836,1.312,2.55,3.579,1.502,4.77
		c-6.074,6.894-32.472,32.429-33.507,32.412c-0.688-0.011-2.904-0.374-4.923-0.807c-5.555-1.191-15.677,1.008-18.799,4.083
		c-0.415,0.409-0.94,0.743-1.166,0.743c-0.757,0-5.126,4.266-6.466,6.313c-4.905,7.492-6.927,16.867-4.757,22.061
		c0.473,1.128,0.858,2.512,0.858,3.072c0,4.609,11.793,17.109,16.16,17.131c0.383,0.002,1.468,0.447,2.411,0.99
		c2.427,1.396,13.506,1.381,16-0.021c0.942-0.531,2.003-0.967,2.356-0.969c2.606-0.014,12.788-8.666,13.69-11.633
		c0.206-0.676,0.701-1.613,1.101-2.086c2.289-2.698,3.701-13.422,2.288-17.386c-1.055-2.963-1.85-1.997,17.599-21.396l16.252-16.21
		l2.033,0.671c1.119,0.369,2.116,0.888,2.216,1.151c0.214,0.573,12.368,6.883,13.268,6.888c0.344,0.002,1.38,0.397,2.302,0.878
		c0.923,0.481,2.595,1.101,3.715,1.375c1.12,0.275,2.81,0.759,3.751,1.076c11.432,3.839,34.361,4.998,45.144,2.283
		c1.257-0.317,3.7-0.918,5.429-1.336c3.716-0.898,6.254-1.748,9.587-3.208c1.344-0.589,2.791-1.071,3.215-1.071
		c0.425,0,1.092-0.386,1.484-0.856c0.391-0.473,1.096-0.858,1.565-0.858c0.472,0,2.433-0.935,4.359-2.079
		c14.995-8.903,25.543-19.007,33.32-31.921c1.56-2.589,5.898-11.668,5.916-12.377c0.01-0.421,0.395-1.265,0.856-1.875
		c0.461-0.61,0.84-1.638,0.842-2.285c0.002-0.646,0.391-1.918,0.863-2.824c0.472-0.905,1.008-2.706,1.19-4
		c0.182-1.294,0.739-3.639,1.239-5.21c1.311-4.117,1.306-27.275-0.007-31.429c-0.496-1.571-1.051-3.916-1.232-5.21
		c-0.183-1.294-0.719-3.094-1.19-4c-0.473-0.906-0.861-2.176-0.863-2.823c-0.002-0.646-0.381-1.676-0.842-2.286
		c-0.462-0.609-0.847-1.509-0.856-1.997c-0.034-1.623-6.393-13.525-9.295-17.397c-6.445-8.599-18.077-20.327-21.191-21.369
		c-0.372-0.124-1.575-0.921-2.675-1.772c-2.105-1.627-2.337-1.757-9.845-5.503c-7.366-3.675-9.914-4.783-10.987-4.783
		c-0.546,0-1.675-0.358-2.509-0.794c-0.834-0.438-2.802-1.059-4.374-1.38c-1.571-0.321-4.271-0.935-6-1.362l-3.144-0.777
		l-0.158-19.986c-0.165-20.636-0.061-22.559,1.228-22.559c2.586,0,11.709-8.903,14.057-13.717c0.689-1.413,1.536-3.083,1.884-3.711
		c4.551-8.234,1.026-25.751-6.791-33.76c-8.572-8.779-24.874-13.05-33.646-8.812c-1.257,0.608-2.721,1.113-3.252,1.124
		c-0.532,0.011-1.128,0.28-1.325,0.599c-0.196,0.319-1.279,0.967-2.406,1.437c-7.292,3.047-14.239,14.521-16.012,26.443
		c-1.463,9.852,8.491,26.84,17.804,30.38l1.478,0.562v21.092v21.092l-2.715,0.407c-1.493,0.225-3.131,0.63-3.64,0.902
		c-0.51,0.272-2.31,0.735-4,1.027c-3.846,0.664-8.292,2.229-15.112,5.313c-3.15,1.425-2.969,1.476-7.818-2.235
		c-2.36-1.807-4.856-3.671-5.546-4.143c-0.689-0.471-2.199-1.692-3.354-2.713c-1.156-1.022-2.26-1.857-2.451-1.858
		c-0.352,0-15.915-11.716-17.793-13.393c-0.55-0.491-1.244-0.894-1.543-0.894s-0.749-0.326-1-0.728
		c-0.451-0.718-15.124-11.989-22.115-16.986c-1.979-1.414-4.014-2.957-4.525-3.429c-0.51-0.471-5.113-4.017-10.229-7.88
		c-22.341-16.87-28.24-21.354-29.5-22.423c-0.738-0.626-2.667-2.031-4.286-3.121s-3.966-2.856-5.215-3.924l-2.272-1.94l0.7-3.39
		C93.746,37.501,70.759,13.184,49.572,17.846 M256.341,181.99c2.152,0.476,4.196,1.146,4.544,1.493
		c0.347,0.347,1.028,0.639,1.516,0.649c1.492,0.029,6.818,2.886,10.6,5.685c3.153,2.333,10.478,10.457,11.894,13.193
		c0.884,1.707,1.817,3.488,2.074,3.961c1.305,2.388,2.89,6.225,2.89,6.993c0,0.477,0.415,1.86,0.923,3.075
		c1.346,3.223,1.354,19.755,0.012,22.354c-0.514,0.994-0.935,2.221-0.935,2.728c0,1.36-2.498,6.283-5.941,11.707
		c-2.293,3.613-11.765,12.796-15.347,14.879c-1.649,0.959-3.383,1.972-3.855,2.248c-0.471,0.278-1.241,0.65-1.714,0.828
		c-0.471,0.178-1.243,0.554-1.714,0.836c-5.44,3.255-20.933,4.063-28.781,1.501c-4-1.305-5.416-1.894-7.791-3.242
		c-0.471-0.267-1.241-0.647-1.714-0.845c-6.359-2.668-20.57-17.182-20.57-21.01c0-0.423-0.387-1.089-0.857-1.481
		c-0.472-0.391-0.859-1.13-0.861-1.641c-0.002-0.512-0.412-1.702-0.909-2.644c-2.844-5.375-2.847-23.234-0.007-28.572
		c0.502-0.943,0.914-2.061,0.916-2.483c0.003-0.684,0.932-2.729,2.374-5.23c0.272-0.473,0.804-1.5,1.181-2.286
		c1.777-3.71,10.018-12.699,14.144-15.428c0.712-0.473,1.844-1.243,2.514-1.716c1.246-0.875,4.786-2.64,8.363-4.168
		C235.558,180.694,247.649,180.075,256.341,181.99"/>
</g>
</svg>
